<?xml version="1.0" standalone="no"?>
<!DOCTYPE svg PUBLIC "-//W3C//DTD SVG 20010904//EN"
 "http://www.w3.org/TR/2001/REC-SVG-20010904/DTD/svg10.dtd">
<svg version="1.0" xmlns="http://www.w3.org/2000/svg"
 width="16.000000pt" height="16.000000pt" viewBox="0 0 16.000000 16.000000"
 preserveAspectRatio="xMidYMid meet">
<metadata>
Created by potrace 1.11, written by Peter Selinger 2001-2013
</metadata>
<g transform="translate(0.000000,16.000000) scale(0.006154,-0.006154)"
fill="#000000" stroke="none">
<path d="M0 1300 l0 -1300 1300 0 1300 0 0 1300 0 1300 -1300 0 -1300 0 0
-1300z m1188 809 c26 -7 88 -30 137 -52 50 -22 108 -42 130 -44 38 -4 44 -1
83 41 65 71 72 65 72 -61 0 -60 3 -166 7 -237 6 -120 5 -128 -12 -125 -12 3
-28 31 -49 85 -38 100 -73 153 -145 224 -145 142 -354 187 -504 111 -73 -37
-111 -80 -144 -161 -37 -92 -46 -162 -47 -335 0 -296 53 -420 213 -493 73 -33
180 -40 275 -18 82 19 126 45 164 94 25 32 27 43 27 121 0 159 -48 211 -202
219 -62 3 -83 8 -83 18 0 12 63 14 370 14 307 0 370 -2 370 -14 0 -9 -19 -16
-58 -20 -86 -10 -132 -47 -151 -123 -6 -23 -11 -105 -11 -182 0 -159 -1 -161
-68 -116 -53 36 -112 33 -242 -12 -273 -95 -552 -41 -735 142 -116 116 -162
236 -152 399 9 152 62 266 176 374 64 62 205 134 291 151 30 6 64 13 75 15 30
7 159 -2 213 -15z m962 -446 c59 -76 -47 -167 -115 -98 -30 30 -32 64 -4 99
29 37 89 37 119 -1z m-60 -272 c0 -7 -165 -467 -229 -639 -68 -183 -92 -228
-168 -324 -41 -52 -67 -73 -118 -99 -55 -27 -71 -30 -110 -24 -91 13 -142 98
-95 158 18 23 29 28 58 25 47 -4 60 -26 44 -73 -24 -63 9 -99 68 -75 49 20 97
106 164 295 19 55 85 236 145 403 61 166 111 309 111 317 0 12 -12 13 -65 8
-55 -5 -65 -4 -65 10 0 13 14 17 68 19 96 4 192 4 192 -1z"/>
</g>
</svg>
